<svg width="25" height="24" viewBox="0 0 25 24" fill="none" xmlns="http://www.w3.org/2000/svg">
<g id="download-cloud" clip-path="url(#clip0_42_3920)">
<path id="Vector" d="M8.5 17L12.5 21L16.5 17" stroke="white" stroke-width="2" stroke-linecap="round" stroke-linejoin="round"/>
<path id="Vector_2" d="M12.5 12V21" stroke="white" stroke-width="2" stroke-linecap="round" stroke-linejoin="round"/>
<path id="Vector_3" d="M21.3799 18.09C22.2493 17.4786 22.9013 16.6061 23.2412 15.5991C23.5811 14.5921 23.5913 13.503 23.2703 12.4898C22.9493 11.4766 22.3138 10.5921 21.456 9.96456C20.5982 9.33703 19.5628 8.99916 18.4999 8.99999H17.2399C16.9392 7.82787 16.3764 6.73924 15.5941 5.81607C14.8117 4.89291 13.8301 4.15925 12.7231 3.67035C11.6162 3.18144 10.4128 2.95002 9.20346 2.99351C7.99414 3.037 6.81045 3.35426 5.74149 3.92142C4.67253 4.48858 3.74616 5.29084 3.03212 6.26782C2.31808 7.2448 1.83498 8.37104 1.61919 9.56174C1.4034 10.7524 1.46054 11.9766 1.78631 13.142C2.11208 14.3074 2.69799 15.3838 3.49993 16.29" stroke="white" stroke-width="2" stroke-linecap="round" stroke-linejoin="round"/>
</g>
<defs>
<clipPath id="clip0_42_3920">
<rect width="24" height="24" fill="white" transform="translate(0.5)"/>
</clipPath>
</defs>
</svg>
